<?xml version="1.0" encoding="UTF-8" standalone="no"?>
<svg
   viewBox="0 0 24 24"
   version="1.1"
   id="svg8"
   sodipodi:docname="application-menu.svg"
   inkscape:version="1.1.1 (3bf5ae0d25, 2021-09-20)"
   xmlns:inkscape="http://www.inkscape.org/namespaces/inkscape"
   xmlns:sodipodi="http://sodipodi.sourceforge.net/DTD/sodipodi-0.dtd"
   xmlns="http://www.w3.org/2000/svg"
   xmlns:svg="http://www.w3.org/2000/svg">
  <sodipodi:namedview
     id="namedview10"
     pagecolor="#505050"
     bordercolor="#eeeeee"
     borderopacity="1"
     inkscape:pageshadow="0"
     inkscape:pageopacity="0"
     inkscape:pagecheckerboard="0"
     showgrid="false"
     inkscape:zoom="32"
     inkscape:cx="10.453125"
     inkscape:cy="12.4375"
     inkscape:window-width="1920"
     inkscape:window-height="1052"
     inkscape:window-x="0"
     inkscape:window-y="28"
     inkscape:window-maximized="1"
     inkscape:current-layer="layer1" />
  <defs
     id="defs3051">
    <style
       type="text/css"
       id="current-color-scheme">
      .ColorScheme-Text {
        color:#eff0f1;
      }
      </style>
  </defs>
  <g
     transform="translate(1,1)"
     id="g6" />
  <g
     inkscape:groupmode="layer"
     id="layer1"
     inkscape:label="Layer 1">
    <path
       id="rect850"
       style="fill:#eff0f1;fill-opacity:1;stroke:none;stroke-width:2;paint-order:markers fill stroke"
       d="M 5 6 A 1 1 0 0 0 4 7 A 1 1 0 0 0 5 8 A 1 1 0 0 0 6 7 A 1 1 0 0 0 5 6 z M 8.28125 6 C 7.8484375 6 7.5 6.446 7.5 7 C 7.5 7.554 7.8484375 8 8.28125 8 L 19.21875 8 C 19.651563 8 20 7.554 20 7 C 20 6.446 19.651563 6 19.21875 6 L 8.28125 6 z M 5 11 A 1 1 0 0 0 4 12 A 1 1 0 0 0 5 13 A 1 1 0 0 0 6 12 A 1 1 0 0 0 5 11 z M 8.28125 11 C 7.8484375 11 7.5 11.446 7.5 12 C 7.5 12.554 7.8484375 13 8.28125 13 L 19.21875 13 C 19.651563 13 20 12.554 20 12 C 20 11.446 19.651563 11 19.21875 11 L 8.28125 11 z M 5 16 A 1 1 0 0 0 4 17 A 1 1 0 0 0 5 18 A 1 1 0 0 0 6 17 A 1 1 0 0 0 5 16 z M 8.28125 16 C 7.8484375 16 7.5 16.446 7.5 17 C 7.5 17.554 7.8484375 18 8.28125 18 L 19.21875 18 C 19.651563 18 20 17.554 20 17 C 20 16.446 19.651563 16 19.21875 16 L 8.28125 16 z " />
  </g>
</svg>
